<svg width="40" height="41" viewBox="0 0 40 41" fill="none" xmlns="http://www.w3.org/2000/svg">
<path fill-rule="evenodd" clip-rule="evenodd" d="M40 0.140015H0V40.14H40V0.140015ZM7.79453 19.1779C7.74079 19.2028 7.68565 19.2292 7.63053 19.2569L7.62781 19.2556C7.40046 19.3721 7.18412 19.515 7.07252 19.7412C6.89477 20.1019 7.06423 20.557 7.35909 20.8276C7.65396 21.0981 8.04804 21.2272 8.42972 21.3465C9.1476 21.5727 9.86826 21.7919 10.5903 22.0056C11.4514 22.2609 12.3471 22.5106 13.2372 22.383C14.232 22.2415 15.0973 21.6476 15.9227 21.0704C17.1879 20.1856 18.4528 19.3005 19.7177 18.4154C20.9819 17.5308 22.2461 16.6462 23.5107 15.7619C23.7119 15.6217 23.9654 15.4746 24.1859 15.5829C24.5565 15.7646 24.3443 16.3335 24.0743 16.6485C23.1986 17.6706 22.185 18.5619 21.1722 19.4526C19.9716 20.5085 18.7721 21.5634 17.8049 22.8339C17.5899 23.1156 17.3791 23.4319 17.3764 23.7871C17.3709 24.3768 17.9137 24.8014 18.4015 25.1261C19.4273 25.8101 20.4535 26.4941 21.4797 27.1782C22.5059 27.8622 23.5321 28.5462 24.5579 29.2303C25.0526 29.5591 25.5569 29.8935 26.1287 30.0531C26.7005 30.2112 27.3591 30.1696 27.8221 29.7964C28.3691 29.3551 28.5124 28.5892 28.6172 27.8913C29.2946 23.4098 29.9709 18.9272 30.6471 14.4454L30.921 12.6303C31.0312 11.9004 31.1043 11.0485 30.5834 10.5296C30.4746 10.42 30.3437 10.3326 30.2017 10.2701C29.7911 10.0912 29.3185 10.1245 28.89 10.2063C28.7806 10.2271 28.6728 10.2561 28.5653 10.285C28.4506 10.3158 28.3362 10.3465 28.2203 10.3673C28.0267 10.4014 27.8316 10.4953 27.644 10.5856C27.5726 10.62 27.5023 10.6538 27.4336 10.6836C26.8725 10.9252 26.311 11.1671 25.7496 11.409C25.1887 11.6506 24.6279 11.8923 24.0674 12.1336C23.507 12.3748 22.9462 12.6164 22.3854 12.858C21.8239 13.1 21.2624 13.3419 20.7012 13.5835C20.1408 13.8247 19.58 14.0664 19.0192 14.308C18.4577 14.5499 17.8962 14.7918 17.335 15.0334C16.7744 15.2748 16.2134 15.5165 15.6524 15.7582C15.0911 16 14.5298 16.2419 13.9688 16.4833C13.4086 16.7259 12.8483 16.9671 12.2881 17.2083L12.2864 17.209C12.1459 17.2694 12.0057 17.3297 11.8655 17.3901C11.7253 17.4504 11.5851 17.5108 11.4446 17.5711C11.3627 17.607 11.2804 17.6425 11.1979 17.678C11.1401 17.7029 11.0822 17.7278 11.0243 17.7529C10.9878 17.7689 10.9512 17.7845 10.9147 17.8001C10.8782 17.8157 10.8417 17.8313 10.8052 17.8472C10.7893 17.8536 10.7694 17.8644 10.748 17.876C10.7045 17.8995 10.6548 17.9263 10.6206 17.9263L10.5708 17.9478C9.6421 18.3486 8.71233 18.7498 7.79453 19.1779Z" fill="#00D1FF"/>
</svg>
