<svg width="44" height="46" viewBox="0 0 44 46" fill="none" xmlns="http://www.w3.org/2000/svg">
<path fill-rule="evenodd" clip-rule="evenodd" d="M22.0011 37C18.3119 32.1752 15.1351 26.9988 12.3103 19.8896C10.3584 14.9777 10.4299 9.58179 13.5982 5.80918C15.9679 2.98465 18.8013 2 22.0011 2C25.2008 2 28.0342 2.98465 30.4039 5.80918C33.5693 9.5846 33.6409 14.9805 31.6918 19.8896C28.867 26.9988 25.6902 32.1752 22.0011 37Z" stroke="white" stroke-width="3" stroke-miterlimit="22.9256" stroke-linecap="round" stroke-linejoin="round"/>
<path d="M22 18C24.7614 18 27 15.7614 27 13C27 10.2386 24.7614 8 22 8C19.2386 8 17 10.2386 17 13C17 15.7614 19.2386 18 22 18Z" stroke="white" stroke-width="3" stroke-miterlimit="22.9256" stroke-linecap="round" stroke-linejoin="round"/>
<path d="M30.9364 32C37.4818 32.9326 42 34.9178 42 37.2166C42 40.4113 33.2708 43 22.5 43C11.7292 43 3 40.4113 3 37.2166C3 34.9283 7.48403 32.9482 13.9897 32.0104" stroke="white" stroke-width="3" stroke-miterlimit="22.9256" stroke-linecap="round" stroke-linejoin="round"/>
</svg>
