<svg width="30" height="30" viewBox="0 0 30 30" fill="none" xmlns="http://www.w3.org/2000/svg">
<path d="M2.5 2.5H4.65113C5.98631 2.5 7.03715 3.63743 6.92588 4.94608L5.89977 17.1275C5.72669 19.1211 7.32148 20.8333 9.34898 20.8333H22.5154C24.2956 20.8333 25.8533 19.3902 25.9893 17.6412L26.6569 8.46843C26.8052 6.43819 25.2475 4.78708 23.1829 4.78708H7.2226" stroke="white" stroke-width="2" stroke-miterlimit="10" stroke-linecap="round" stroke-linejoin="round"/>
<path d="M20.8332 27.5C21.7536 27.5 22.4998 26.7538 22.4998 25.8334C22.4998 24.9129 21.7536 24.1667 20.8332 24.1667C19.9127 24.1667 19.1665 24.9129 19.1665 25.8334C19.1665 26.7538 19.9127 27.5 20.8332 27.5Z" stroke="white" stroke-width="2" stroke-miterlimit="10" stroke-linecap="round" stroke-linejoin="round"/>
<path d="M10.8332 27.5C11.7536 27.5 12.4998 26.7538 12.4998 25.8334C12.4998 24.9129 11.7536 24.1667 10.8332 24.1667C9.9127 24.1667 9.1665 24.9129 9.1665 25.8334C9.1665 26.7538 9.9127 27.5 10.8332 27.5Z" stroke="white" stroke-width="2" stroke-miterlimit="10" stroke-linecap="round" stroke-linejoin="round"/>
<path d="M11.6665 10H26.6665" stroke="white" stroke-width="2" stroke-miterlimit="10" stroke-linecap="round" stroke-linejoin="round"/>
</svg>
