<svg width="51" height="51" viewBox="0 0 51 51" fill="none" xmlns="http://www.w3.org/2000/svg">
<path fill-rule="evenodd" clip-rule="evenodd" d="M2.24505 9.3228C2.4808 9.77737 3.23604 10.6048 3.59637 10.9823C4.79034 12.2333 7.73062 14.1206 9.09094 14.5005C9.42994 12.5729 10.0129 11.692 12.2785 11.1548C13.5712 10.8484 17.0398 10.5569 18.3139 10.7132L25.5156 50.9999L32.6298 10.7149C34.1943 10.5925 37.2707 10.8082 38.7304 11.1613C39.6855 11.3923 40.3896 11.7039 40.9417 12.2408C41.7338 13.0108 41.6858 13.6541 41.9122 14.5035C43.0419 14.167 44.9387 12.9689 45.7651 12.3608C46.9808 11.4662 46.9536 11.3264 47.7796 10.569C47.9722 10.3924 48.6551 9.54739 48.7485 9.30498C48.4476 9.22265 48.0424 9.00188 47.7351 8.87C47.3986 8.72559 47.1016 8.59702 46.7585 8.45975C46.0961 8.19466 45.4322 7.94009 44.742 7.70025C41.8035 6.6791 38.926 5.97733 35.8208 5.48093C34.3778 5.25022 32.227 4.92518 30.77 4.96318L28.7637 7.39796C28.5286 7.67779 28.3273 7.91387 28.1162 8.1912L25.4833 11.3652L24.1605 9.76308C23.9447 9.4795 23.7374 9.25579 23.5112 8.97191L20.2479 4.9768C19.3348 4.84624 16.1756 5.31731 15.1557 5.48108C10.5453 6.22174 6.40466 7.43095 2.24513 9.32295L2.24505 9.3228ZM0 4.95928C0.112487 5.40059 0.768137 6.73676 1.02594 7.223C1.15462 7.46578 1.31833 7.70157 1.38795 7.94134L3.98813 6.89752C11.1144 4.24197 17.6773 3.09328 25.4832 3.09188C31.6258 3.0907 38.5479 3.95456 44.2896 5.93705C45.1998 6.25134 46.0764 6.54449 46.9494 6.87491L49.5557 7.93162L49.7655 7.61336C49.84 7.47676 49.8847 7.37381 49.9576 7.23655C50.2484 6.68905 50.8801 5.49257 50.9999 4.96642L48.2256 3.94189C33.2646 -1.34137 17.7942 -1.27974 2.82339 3.92157L0 4.95928Z" fill="white"/>
</svg>
