<svg width="40" height="41" viewBox="0 0 40 41" fill="none" xmlns="http://www.w3.org/2000/svg">
<path fill-rule="evenodd" clip-rule="evenodd" d="M40 0.280029H0V40.28H40V0.280029ZM16.0214 27.3779L13.719 27.3779C10.119 27.3779 7.71901 24.9732 7.71901 21.3661V14.1519C7.71901 10.5448 10.119 8.14001 13.719 8.14001H25.719C29.319 8.14001 31.719 10.5448 31.719 14.1519V21.3661C31.719 24.9732 29.319 27.3779 25.719 27.3779V29.939C25.719 30.9009 24.651 31.466 23.859 30.937L18.6478 27.3779L16.0214 27.3779Z" fill="#00D1FF"/>
<path d="M10.0348 19.2157C10.0597 20.1024 10.3206 20.8025 10.8161 21.3198L10.8161 21.3199C11.3155 21.8431 11.9876 22.106 12.8344 22.106C13.3798 22.106 13.8415 21.9994 14.2244 21.7898C14.6076 21.5784 14.9112 21.273 15.1341 20.8669L15.1342 20.8668C15.3572 20.4627 15.4697 20.0144 15.4697 19.521C15.4697 19.0232 15.3646 18.5977 15.1543 18.241L15.1542 18.2409C14.9459 17.8845 14.6329 17.5988 14.2155 17.3804C13.9414 17.2423 13.465 17.0747 12.7821 16.8843L12.782 16.8843C12.4315 16.7858 12.1426 16.6875 11.916 16.5892C11.6901 16.4911 11.5236 16.3918 11.4199 16.2902C11.2113 16.0896 11.1091 15.8061 11.1091 15.4468C11.1091 15.0585 11.2484 14.7409 11.5293 14.4948L10.0348 19.2157ZM10.0348 19.2157L10.8417 19.1369L10.0348 19.2157ZM24.531 19.2157C24.5559 20.1024 24.8168 20.8025 25.3123 21.3198L25.3123 21.3199C25.8117 21.8431 26.4838 22.106 27.3306 22.106C27.876 22.106 28.3377 21.9994 28.7206 21.7898L24.531 19.2157ZM24.531 19.2157L25.3379 19.1369C25.3851 19.6017 25.489 19.9692 25.6517 20.2363L25.6806 20.2187L25.6518 20.2363C25.8182 20.5094 26.0546 20.7283 26.362 20.8932L26.3755 20.868L26.362 20.8932C26.6698 21.0583 27.0174 21.1404 27.3995 21.1404C27.9493 21.1404 28.3807 21.0011 28.6894 20.7201L28.6895 20.72C28.9977 20.4373 29.1503 20.071 29.1503 19.6246C29.1503 19.3621 29.0942 19.1332 28.9809 18.9347M24.531 19.2157L28.9809 18.9347M28.9809 18.9347C28.981 18.9348 28.981 18.9348 28.981 18.9348L28.9514 18.9516L28.9809 18.9347ZM28.9809 18.9347C28.8694 18.7381 28.6994 18.5758 28.4729 18.4515L28.9809 18.9347ZM25.0179 16.5789L25.018 16.5791C25.1687 16.8844 25.3812 17.1373 25.6537 17.3368C25.9258 17.5341 26.385 17.7335 27.0362 17.9318C27.0362 17.9318 27.0362 17.9319 27.0363 17.9319L27.0263 17.9644L25.0179 16.5789ZM25.0179 16.5789C24.8655 16.2742 24.7897 15.9268 24.7897 15.54C24.7897 14.8423 25.0071 14.2757 25.442 13.8348L25.442 13.8348M25.0179 16.5789L25.442 13.8348M25.442 13.8348C25.8744 13.3948 26.46 13.1741 27.1993 13.1741C27.7091 13.1741 28.153 13.2785 28.5323 13.4842C28.9114 13.6917 29.2054 13.9891 29.4165 14.3746C29.6213 14.7525 29.7338 15.1986 29.7529 15.712L28.947 15.7908C28.8974 15.2378 28.7316 14.8207 28.4466 14.5469L25.442 13.8348ZM27.2783 16.8843L27.2782 16.8843C26.9277 16.7858 26.6389 16.6875 26.4123 16.5892C26.1863 16.4911 26.0198 16.3918 25.9161 16.2902C25.9161 16.2902 25.916 16.2901 25.916 16.2901L25.9398 16.2658C25.7396 16.0732 25.6393 15.7995 25.6393 15.4468C25.6393 15.0678 25.775 14.7597 26.0481 14.5205C26.3211 14.2813 26.7158 14.1617 27.2345 14.1617L27.2783 16.8843ZM27.2783 16.8843C27.9613 17.0747 28.4378 17.2423 28.7117 17.3804C29.1291 17.5988 29.4421 17.8845 29.6504 18.2409L29.6505 18.241M27.2783 16.8843L29.6505 18.241M29.6505 18.241C29.861 18.5977 29.966 19.0232 29.966 19.521C29.966 20.0144 29.8534 20.4627 29.6304 20.8668L29.6304 20.8669M29.6505 18.241L29.6304 20.8669M29.6304 20.8669C29.4073 21.273 29.1037 21.5783 28.7207 21.7898L29.6304 20.8669ZM23.2934 13.3202V21.9603H22.4777V14.6727L22.4108 14.6637L20.4062 21.9603H19.6335L17.6446 14.5443L17.5776 14.5532V21.9603H16.7619V13.3201H18.0786L19.7079 19.4608L19.708 19.4611L20.036 20.7499L20.102 20.7497C20.1824 20.4279 20.3041 19.9638 20.4691 19.3539L22.118 13.3202H23.2934Z" fill="#00D1FF" stroke="white" stroke-width="0.0680959"/>
</svg>
