<svg width="46" height="55" viewBox="0 0 46 55" fill="none" xmlns="http://www.w3.org/2000/svg">
<path fill-rule="evenodd" clip-rule="evenodd" d="M26.427 14.8756C25.819 15.1546 24.591 15.6463 23.8507 15.7186C22.9727 15.8041 22.0184 15.3411 21.3442 15.1215C20.4291 14.8229 16.2394 13.1901 13.6851 13.3526C9.05416 13.6475 5.6743 15.343 2.89469 19.6525C-1.44457 26.3806 0.249945 33.5359 0.725244 35.3552C2.17166 40.8928 5.42034 48.5398 9.67421 53.3597C11.0041 54.8665 14.2608 55.7824 18.2245 54.0895C20.6226 53.0652 25.4635 51.8194 28.1145 53.3018C28.9948 53.7939 30.0608 54.1245 31.2247 54.419C36.1217 55.6571 38.3571 52.8113 40.7787 49.7682C41.8663 48.4015 42.862 46.9283 43.6986 45.3902C44.5627 43.8016 45.5767 41.9491 46 40.0561C41.1682 39.5954 38.8485 33.8949 38.4806 28.7487C38.2003 24.8303 41.7146 18.8685 44.4462 18.8552C43.5704 14.9973 36.1202 13.1779 32.9723 13.1938C30.5027 13.2059 28.3476 13.9947 26.4266 14.8764L26.427 14.8756ZM23.0185 12.4817C29.7273 12.3659 34.5019 6.38754 34.4514 0C27.1265 0.587521 22.7191 5.7252 23.0185 12.4817Z" fill="white"/>
</svg>
