<svg width="40" height="41" viewBox="0 0 40 41" fill="none" xmlns="http://www.w3.org/2000/svg">
<path fill-rule="evenodd" clip-rule="evenodd" d="M40 0.280029H0V40.28H40V0.280029ZM31.6995 29.044C31.9039 28.612 32 28.168 32 27.736C32 27.4 31.9279 27.1 31.8077 26.8C31.6755 26.5 31.4592 26.248 31.1467 26.032L27.1688 23.212C26.8683 23.008 26.5919 22.852 26.3275 22.744C26.0631 22.636 25.8227 22.588 25.5944 22.588C25.2939 22.588 25.0175 22.672 24.7411 22.84C24.4647 22.984 24.1763 23.212 23.8758 23.512L22.9624 24.412C22.8302 24.544 22.674 24.616 22.4697 24.616C22.3615 24.616 22.2654 24.604 22.1693 24.568C22.1307 24.5515 22.0946 24.535 22.0611 24.5197L22.0611 24.5196C22.0215 24.5015 21.9855 24.485 21.9529 24.472C21.5443 24.256 21.0275 23.896 20.4026 23.368C19.7656 22.828 19.1407 22.24 18.4917 21.604C17.8668 20.968 17.2899 20.332 16.7491 19.708C16.2203 19.084 15.8478 18.568 15.6314 18.172C15.6184 18.133 15.6019 18.0941 15.5838 18.0513L15.5838 18.0513L15.5837 18.0512C15.5684 18.015 15.5518 17.976 15.5353 17.932C15.5113 17.836 15.4992 17.752 15.4992 17.656C15.4992 17.464 15.5593 17.308 15.6915 17.176L16.6049 16.228C16.8933 15.94 17.1217 15.652 17.2779 15.376C17.4462 15.1 17.5303 14.812 17.5303 14.524C17.5303 14.296 17.4702 14.044 17.362 13.792C17.2539 13.528 17.0976 13.252 16.8813 12.952L14.0931 9.02802C13.8768 8.71601 13.6004 8.50002 13.2879 8.35601C12.9875 8.21201 12.651 8.14001 12.3145 8.14001C11.4251 8.14001 10.5839 8.51201 9.81472 9.26801C9.17777 9.86802 8.72108 10.54 8.43265 11.272C8.14422 11.992 8 12.772 8 13.588C8 14.836 8.28843 16.144 8.8653 17.512C9.44216 18.868 10.2354 20.236 11.2208 21.604C12.2183 22.972 13.336 24.28 14.5739 25.528C15.8237 26.764 17.1337 27.88 18.5158 28.888C19.8858 29.884 21.2679 30.676 22.65 31.264C24.032 31.852 25.342 32.14 26.5679 32.14C27.4091 32.14 28.1903 31.984 28.9114 31.684C29.6445 31.384 30.2934 30.916 30.8823 30.268C31.2308 29.884 31.4952 29.476 31.6995 29.044ZM21.25 13.14C21.25 12.7258 21.5858 12.39 22 12.39C23.5017 12.39 24.9008 13.3334 25.8776 14.3863C26.422 14.9696 26.8804 15.622 27.2063 16.256C27.5246 16.8752 27.75 17.5416 27.75 18.14C27.75 18.5542 27.4142 18.89 27 18.89C26.5858 18.89 26.25 18.5542 26.25 18.14C26.25 17.8813 26.1397 17.462 25.8723 16.9419C25.6127 16.4369 25.2356 15.8968 24.7803 15.4089L24.7787 15.4072C23.927 14.489 22.8979 13.89 22 13.89C21.5858 13.89 21.25 13.5542 21.25 13.14ZM22 7.39001C21.5858 7.39001 21.25 7.7258 21.25 8.14001C21.25 8.55423 21.5858 8.89001 22 8.89001C27.1144 8.89001 31.25 13.0257 31.25 18.14C31.25 18.5542 31.5858 18.89 32 18.89C32.4142 18.89 32.75 18.5542 32.75 18.14C32.75 12.1972 27.9428 7.39001 22 7.39001Z" fill="#00D1FF"/>
</svg>
