<svg aria-hidden="true" xmlns="http://www.w3.org/2000/svg" xmlns:xlink="http://www.w3.org/1999/xlink"><symbol viewBox="0 0 25 24" fill="none" id="icon-arrow" xmlns="http://www.w3.org/2000/svg">
<path d="M20.8459 8.9502L14.3259 15.4702C13.5559 16.2402 12.2959 16.2402 11.5259 15.4702L5.00586 8.9502" stroke="currentColor" stroke-width="1.5" stroke-miterlimit="10" stroke-linecap="round" stroke-linejoin="round"/>
</symbol><symbol viewBox="0 0 22 13" fill="none" id="icon-arrow-simple" xmlns="http://www.w3.org/2000/svg">
<path d="M1.2212 1.7792L10.7522 11.2832L20.2832 1.7792" stroke="currentColor" stroke-width="2" stroke-linecap="round" stroke-linejoin="round"/>
</symbol><symbol viewBox="0 0 21 44" fill="none" id="icon-bending" xmlns="http://www.w3.org/2000/svg">
<path d="M9 42C4.59 36.4333 2 29.5 2 22C2 14.5 4.59 7.56667 9 2" stroke="currentColor" stroke-width="4" stroke-linecap="round" stroke-linejoin="round"/>
<path d="M19 34C16.5 30.6667 15 26.5 15 22C15 17.5 16.5 13.3333 19 10" stroke="currentColor" stroke-width="4" stroke-linecap="round" stroke-linejoin="round"/>
</symbol><symbol viewBox="0 0 30 30" fill="none" id="icon-cart" xmlns="http://www.w3.org/2000/svg">
<path d="M2.5 2.5H4.65113C5.98631 2.5 7.03715 3.63743 6.92588 4.94608L5.89977 17.1275C5.72669 19.1211 7.32148 20.8333 9.34898 20.8333H22.5154C24.2956 20.8333 25.8533 19.3902 25.9893 17.6412L26.6569 8.46843C26.8052 6.43819 25.2475 4.78708 23.1829 4.78708H7.2226" stroke="currentColor" stroke-width="2" stroke-miterlimit="10" stroke-linecap="round" stroke-linejoin="round"/>
<path d="M20.8332 27.5C21.7536 27.5 22.4998 26.7538 22.4998 25.8334C22.4998 24.9129 21.7536 24.1667 20.8332 24.1667C19.9127 24.1667 19.1665 24.9129 19.1665 25.8334C19.1665 26.7538 19.9127 27.5 20.8332 27.5Z" stroke="currentColor" stroke-width="2" stroke-miterlimit="10" stroke-linecap="round" stroke-linejoin="round"/>
<path d="M10.8332 27.5C11.7536 27.5 12.4998 26.7538 12.4998 25.8334C12.4998 24.9129 11.7536 24.1667 10.8332 24.1667C9.9127 24.1667 9.1665 24.9129 9.1665 25.8334C9.1665 26.7538 9.9127 27.5 10.8332 27.5Z" stroke="currentColor" stroke-width="2" stroke-miterlimit="10" stroke-linecap="round" stroke-linejoin="round"/>
<path d="M11.6665 10H26.6665" stroke="currentColor" stroke-width="2" stroke-miterlimit="10" stroke-linecap="round" stroke-linejoin="round"/>
</symbol><symbol viewBox="0 0 24 24" fill="none" id="icon-check" xmlns="http://www.w3.org/2000/svg">
<path d="M3.61971 8.49C5.58971 -0.169998 18.4197 -0.159997 20.3797 8.5C21.5297 13.58 18.3697 17.88 15.5997 20.54C13.5897 22.48 10.4097 22.48 8.38971 20.54C5.62971 17.88 2.46971 13.57 3.61971 8.49Z" stroke="currentColor" stroke-width="1.5"/>
<path d="M9.25 11.5L10.75 13L14.75 9" stroke="currentColor" stroke-width="1.5" stroke-linecap="round" stroke-linejoin="round"/>
</symbol><symbol viewBox="0 0 81 79" fill="none" id="icon-cross" xmlns="http://www.w3.org/2000/svg">
<path fill-rule="evenodd" clip-rule="evenodd" d="M0.0961948 25.4783L18.5896 7.23459L63.3189 68.7646L53.6954 78.7342L39.5761 65.1246L25.9338 78.998L0 52.7387L13.8013 39.2291L0.0975308 25.4783H0.0961948ZM70.4199 40.9978H80.9987V42.0481H70.4199V40.9978ZM18.623 5.55523L23.9298 0.297221L37.4826 13.7814L51.2144 0L77.1161 26.0448L63.4725 39.7396L77.1014 53.3238L63.6515 67.0639L18.6244 5.55523H18.623Z" fill="currentColor"/>
</symbol><symbol viewBox="0 0 24 24" fill="none" id="icon-curve-arrow" xmlns="http://www.w3.org/2000/svg">
<path d="M7.12988 18.31H15.1299C17.8899 18.31 20.1299 16.07 20.1299 13.31C20.1299 10.55 17.8899 8.31 15.1299 8.31H4.12988" stroke="currentColor" stroke-width="1.5" stroke-miterlimit="10" stroke-linecap="round" stroke-linejoin="round"/>
<path d="M6.43012 10.81L3.87012 8.25L6.43012 5.69" stroke="currentColor" stroke-width="1.5" stroke-linecap="round" stroke-linejoin="round"/>
</symbol><symbol viewBox="0 0 44 46" fill="none" id="icon-location" xmlns="http://www.w3.org/2000/svg">
<path fill-rule="evenodd" clip-rule="evenodd" d="M22.0011 37C18.3119 32.1752 15.1351 26.9988 12.3103 19.8896C10.3584 14.9777 10.4299 9.58179 13.5982 5.80918C15.9679 2.98465 18.8013 2 22.0011 2C25.2008 2 28.0342 2.98465 30.4039 5.80918C33.5693 9.5846 33.6409 14.9805 31.6918 19.8896C28.867 26.9988 25.6902 32.1752 22.0011 37Z" stroke="currentColor" stroke-width="3" stroke-miterlimit="22.9256" stroke-linecap="round" stroke-linejoin="round"/>
<path d="M22 18C24.7614 18 27 15.7614 27 13C27 10.2386 24.7614 8 22 8C19.2386 8 17 10.2386 17 13C17 15.7614 19.2386 18 22 18Z" stroke="currentColor" stroke-width="3" stroke-miterlimit="22.9256" stroke-linecap="round" stroke-linejoin="round"/>
<path d="M30.9364 32C37.4818 32.9326 42 34.9178 42 37.2166C42 40.4113 33.2708 43 22.5 43C11.7292 43 3 40.4113 3 37.2166C3 34.9283 7.48403 32.9482 13.9897 32.0104" stroke="currentColor" stroke-width="3" stroke-miterlimit="22.9256" stroke-linecap="round" stroke-linejoin="round"/>
</symbol><symbol viewBox="0 0 15 15" fill="none" id="icon-play" xmlns="http://www.w3.org/2000/svg">
<path d="M0 7.49262V4.36109C0 0.478937 2.93934 -1.11615 6.52908 0.830795L9.41839 2.40242L12.3077 3.97405C15.8974 5.92099 15.8974 9.09944 12.3077 11.0464L9.41839 12.618L6.52908 14.1896C2.93934 16.1014 0 14.518 0 10.6242V7.49262Z" fill="currentColor"/>
</symbol><symbol viewBox="0 0 51 51" fill="none" id="icon-tie" xmlns="http://www.w3.org/2000/svg">
<path fill-rule="evenodd" clip-rule="evenodd" d="M2.24505 9.3228C2.4808 9.77737 3.23604 10.6048 3.59637 10.9823C4.79034 12.2333 7.73062 14.1206 9.09094 14.5005C9.42994 12.5729 10.0129 11.692 12.2785 11.1548C13.5712 10.8484 17.0398 10.5569 18.3139 10.7132L25.5156 50.9999L32.6298 10.7149C34.1943 10.5925 37.2707 10.8082 38.7304 11.1613C39.6855 11.3923 40.3896 11.7039 40.9417 12.2408C41.7338 13.0108 41.6858 13.6541 41.9122 14.5035C43.0419 14.167 44.9387 12.9689 45.7651 12.3608C46.9808 11.4662 46.9536 11.3264 47.7796 10.569C47.9722 10.3924 48.6551 9.54739 48.7485 9.30498C48.4476 9.22265 48.0424 9.00188 47.7351 8.87C47.3986 8.72559 47.1016 8.59702 46.7585 8.45975C46.0961 8.19466 45.4322 7.94009 44.742 7.70025C41.8035 6.6791 38.926 5.97733 35.8208 5.48093C34.3778 5.25022 32.227 4.92518 30.77 4.96318L28.7637 7.39796C28.5286 7.67779 28.3273 7.91387 28.1162 8.1912L25.4833 11.3652L24.1605 9.76308C23.9447 9.4795 23.7374 9.25579 23.5112 8.97191L20.2479 4.9768C19.3348 4.84624 16.1756 5.31731 15.1557 5.48108C10.5453 6.22174 6.40466 7.43095 2.24513 9.32295L2.24505 9.3228ZM0 4.95928C0.112487 5.40059 0.768137 6.73676 1.02594 7.223C1.15462 7.46578 1.31833 7.70157 1.38795 7.94134L3.98813 6.89752C11.1144 4.24197 17.6773 3.09328 25.4832 3.09188C31.6258 3.0907 38.5479 3.95456 44.2896 5.93705C45.1998 6.25134 46.0764 6.54449 46.9494 6.87491L49.5557 7.93162L49.7655 7.61336C49.84 7.47676 49.8847 7.37381 49.9576 7.23655C50.2484 6.68905 50.8801 5.49257 50.9999 4.96642L48.2256 3.94189C33.2646 -1.34137 17.7942 -1.27974 2.82339 3.92157L0 4.95928Z" fill="currentColor"/>
</symbol></svg>