<svg width="259" height="45" viewBox="0 0 259 45" fill="none" xmlns="http://www.w3.org/2000/svg">
<mask id="path-1-inside-1_8842_1479" fill="white">
<path fill-rule="evenodd" clip-rule="evenodd" d="M25.1316 8.56782H14.0161C6.30413 8.56782 0 14.837 0 22.5005C0 30.1634 6.30443 36.4325 14.0161 36.4325H25.1316V31.9037H14.0137C8.81193 31.9037 4.55615 27.6724 4.55615 22.5005C4.55615 17.3282 8.81193 13.0969 14.0137 13.0969H25.1316V8.56812V8.56782ZM233.868 8.56782H244.984C252.696 8.56782 259 14.837 259 22.5005C259 30.0978 252.803 36.3237 245.181 36.4304V36.4325H244.984H240.775H239.271C237.358 36.4325 235.793 37.9883 235.793 39.8901V45H231.238V39.8901V39.5507H231.246C231.427 35.3137 234.965 31.9034 239.274 31.9034H240.775H244.987C250.188 31.9034 254.444 27.6721 254.444 22.5002C254.444 17.3279 250.188 13.0966 244.987 13.0966H233.869V8.56782H233.868ZM197.821 36.4325V25.3806C197.821 17.7129 191.516 11.4449 183.808 11.4449V11.4464H177.898C175.985 11.4464 174.42 9.8906 174.42 7.9885H174.351V0.000599085H169.796V7.9885H169.865C169.865 12.3816 173.478 15.9755 177.902 15.9755H183.809C189.011 15.9755 193.266 20.2066 193.266 25.3788V36.4328H197.821V36.4325ZM174.351 36.4325H169.796V23.4536H174.351V36.4325ZM214.527 8.56782C222.269 8.56782 228.539 14.8055 228.539 22.5005C228.539 30.1948 222.269 36.4325 214.527 36.4325C206.785 36.4325 200.515 30.1948 200.515 22.5005C200.515 14.8058 206.785 8.56782 214.527 8.56782ZM214.527 13.0966C219.751 13.0966 223.985 17.3067 223.985 22.5002C223.985 27.6933 219.751 31.9034 214.527 31.9034C209.303 31.9034 205.069 27.6933 205.069 22.5002C205.069 17.3064 209.303 13.0966 214.527 13.0966ZM158.582 19.4859H152.713H149.274H146.867C144.686 19.4859 142.901 17.7117 142.901 15.5424V15.5412C142.901 15.1371 142.964 14.7453 143.079 14.3775H138.427C138.373 14.7579 138.346 15.1461 138.346 15.5412V15.5424C138.346 20.203 142.18 24.0149 146.866 24.0149H149.274H152.713H158.222H158.581C160.762 24.0149 162.547 25.7891 162.547 27.9584V27.9599C162.547 30.1292 160.762 31.9034 158.581 31.9034H158.222H138.346V36.4322H158.222H158.582C163.268 36.4322 167.102 32.6199 167.102 27.9596V27.9581C167.102 23.2978 163.268 19.4856 158.582 19.4856V19.4859ZM150.943 8.56752H167.102V13.0963H150.943V8.56752ZM130.325 8.57231C122.779 8.76132 116.667 14.9538 116.667 22.5034V27.2883V33.5554V36.4325H121.222V33.5554V27.2883V22.5013C121.222 17.3291 125.478 13.0981 130.68 13.0981V13.0966H135.653V8.56782H130.68H130.325V8.57261V8.57231ZM102.856 24.7647H113.974V20.2353H102.856V24.7647ZM113.974 8.56782H102.858C95.1462 8.56782 88.842 14.837 88.842 22.5005C88.842 30.1634 95.1465 36.4325 102.858 36.4325H113.974V31.9037H102.856C97.654 31.9037 93.3982 27.6724 93.3982 22.5005C93.3982 17.3282 97.654 13.0969 102.856 13.0969H113.974V8.56812V8.56782ZM58.5436 0.000299543V5.1066C58.5436 9.50539 62.158 13.0966 66.5768 13.0966H72.1352C77.337 13.0966 81.5928 17.3279 81.5928 22.5002C81.5928 27.6721 77.337 31.9034 72.1352 31.9034H61.0174V36.4322H72.1328C79.8448 36.4322 86.1489 30.1631 86.1489 22.5002C86.1489 14.8369 79.8445 8.56752 72.1328 8.56752H66.5771C64.664 8.56752 63.0992 7.0117 63.0992 5.1099V0H58.5442L58.5436 0.000299543ZM27.8246 8.56782V19.6197C27.8246 27.2874 34.13 33.5554 41.8377 33.5554V33.5542H47.7478C49.6609 33.5542 51.2257 35.1097 51.2257 37.0118V37.013C51.2257 38.9151 49.6609 40.4709 47.7478 40.4709H44.8701V44.9997H47.7445C52.1687 44.9997 55.7807 41.4058 55.7807 37.0127V37.0115C55.7807 32.6184 52.1684 29.0245 47.7445 29.0245H41.8374C36.6354 29.0245 32.3796 24.7934 32.3796 19.6212V8.56722H27.8246V8.56782ZM51.2953 8.56782H55.8503V21.5467H51.2953V8.56782Z"/>
</mask>
<path fill-rule="evenodd" clip-rule="evenodd" d="M25.1316 8.56782H14.0161C6.30413 8.56782 0 14.837 0 22.5005C0 30.1634 6.30443 36.4325 14.0161 36.4325H25.1316V31.9037H14.0137C8.81193 31.9037 4.55615 27.6724 4.55615 22.5005C4.55615 17.3282 8.81193 13.0969 14.0137 13.0969H25.1316V8.56812V8.56782ZM233.868 8.56782H244.984C252.696 8.56782 259 14.837 259 22.5005C259 30.0978 252.803 36.3237 245.181 36.4304V36.4325H244.984H240.775H239.271C237.358 36.4325 235.793 37.9883 235.793 39.8901V45H231.238V39.8901V39.5507H231.246C231.427 35.3137 234.965 31.9034 239.274 31.9034H240.775H244.987C250.188 31.9034 254.444 27.6721 254.444 22.5002C254.444 17.3279 250.188 13.0966 244.987 13.0966H233.869V8.56782H233.868ZM197.821 36.4325V25.3806C197.821 17.7129 191.516 11.4449 183.808 11.4449V11.4464H177.898C175.985 11.4464 174.42 9.8906 174.42 7.9885H174.351V0.000599085H169.796V7.9885H169.865C169.865 12.3816 173.478 15.9755 177.902 15.9755H183.809C189.011 15.9755 193.266 20.2066 193.266 25.3788V36.4328H197.821V36.4325ZM174.351 36.4325H169.796V23.4536H174.351V36.4325ZM214.527 8.56782C222.269 8.56782 228.539 14.8055 228.539 22.5005C228.539 30.1948 222.269 36.4325 214.527 36.4325C206.785 36.4325 200.515 30.1948 200.515 22.5005C200.515 14.8058 206.785 8.56782 214.527 8.56782ZM214.527 13.0966C219.751 13.0966 223.985 17.3067 223.985 22.5002C223.985 27.6933 219.751 31.9034 214.527 31.9034C209.303 31.9034 205.069 27.6933 205.069 22.5002C205.069 17.3064 209.303 13.0966 214.527 13.0966ZM158.582 19.4859H152.713H149.274H146.867C144.686 19.4859 142.901 17.7117 142.901 15.5424V15.5412C142.901 15.1371 142.964 14.7453 143.079 14.3775H138.427C138.373 14.7579 138.346 15.1461 138.346 15.5412V15.5424C138.346 20.203 142.18 24.0149 146.866 24.0149H149.274H152.713H158.222H158.581C160.762 24.0149 162.547 25.7891 162.547 27.9584V27.9599C162.547 30.1292 160.762 31.9034 158.581 31.9034H158.222H138.346V36.4322H158.222H158.582C163.268 36.4322 167.102 32.6199 167.102 27.9596V27.9581C167.102 23.2978 163.268 19.4856 158.582 19.4856V19.4859ZM150.943 8.56752H167.102V13.0963H150.943V8.56752ZM130.325 8.57231C122.779 8.76132 116.667 14.9538 116.667 22.5034V27.2883V33.5554V36.4325H121.222V33.5554V27.2883V22.5013C121.222 17.3291 125.478 13.0981 130.68 13.0981V13.0966H135.653V8.56782H130.68H130.325V8.57261V8.57231ZM102.856 24.7647H113.974V20.2353H102.856V24.7647ZM113.974 8.56782H102.858C95.1462 8.56782 88.842 14.837 88.842 22.5005C88.842 30.1634 95.1465 36.4325 102.858 36.4325H113.974V31.9037H102.856C97.654 31.9037 93.3982 27.6724 93.3982 22.5005C93.3982 17.3282 97.654 13.0969 102.856 13.0969H113.974V8.56812V8.56782ZM58.5436 0.000299543V5.1066C58.5436 9.50539 62.158 13.0966 66.5768 13.0966H72.1352C77.337 13.0966 81.5928 17.3279 81.5928 22.5002C81.5928 27.6721 77.337 31.9034 72.1352 31.9034H61.0174V36.4322H72.1328C79.8448 36.4322 86.1489 30.1631 86.1489 22.5002C86.1489 14.8369 79.8445 8.56752 72.1328 8.56752H66.5771C64.664 8.56752 63.0992 7.0117 63.0992 5.1099V0H58.5442L58.5436 0.000299543ZM27.8246 8.56782V19.6197C27.8246 27.2874 34.13 33.5554 41.8377 33.5554V33.5542H47.7478C49.6609 33.5542 51.2257 35.1097 51.2257 37.0118V37.013C51.2257 38.9151 49.6609 40.4709 47.7478 40.4709H44.8701V44.9997H47.7445C52.1687 44.9997 55.7807 41.4058 55.7807 37.0127V37.0115C55.7807 32.6184 52.1684 29.0245 47.7445 29.0245H41.8374C36.6354 29.0245 32.3796 24.7934 32.3796 19.6212V8.56722H27.8246V8.56782ZM51.2953 8.56782H55.8503V21.5467H51.2953V8.56782Z" fill="#A01CAD" stroke="#E142F1" stroke-width="2" mask="url(#path-1-inside-1_8842_1479)"/>
</svg>
