<svg width="47" height="50" viewBox="0 0 47 50" fill="none" xmlns="http://www.w3.org/2000/svg">
<path fill-rule="evenodd" clip-rule="evenodd" d="M0 5.23161V44.975C0.010539 46.2449 0.63806 47.6917 1.34613 48.2339L24.3952 24.9629L1.30126 1.8061C0.39491 2.84987 0.0537488 3.87074 0.000150557 5.23161H0ZM27.9849 25.2347L36.4813 33.8363L44.7529 29.3141C46.1705 28.5391 46.8405 27.4368 46.9706 25.4227C47.0781 23.7596 46.9626 22.1653 45.3877 21.2722L36.6723 16.3295L27.9849 25.2347ZM3.43751 49.6836C6.03582 50.5606 7.62043 49.3672 8.16018 49.0742L34.2506 34.9123L26.1672 26.747L3.43751 49.6836ZM3.43751 0.459792L26.1693 23.214L34.264 15.0269L6.62194 0.253343C5.98719 -0.0858875 3.83709 -0.146064 3.43736 0.459641L3.43751 0.459792Z" fill="white"/>
</svg>
