<svg width="142" height="810" viewBox="0 0 142 810" fill="none" xmlns="http://www.w3.org/2000/svg">
<g opacity="0.2">
<mask id="path-1-inside-1_8857_2086" fill="white">
<path fill-rule="evenodd" clip-rule="evenodd" d="M27.0362 731.403V766.166C27.0362 790.284 46.8188 810 71.0014 810C95.1821 810 114.965 790.283 114.965 766.166V731.403H100.674V766.173C100.674 782.441 87.3217 795.751 71.0014 795.751C54.6803 795.751 41.328 782.441 41.328 766.173V731.403H27.0372H27.0362ZM27.0362 78.5968V43.8342C27.0362 19.7157 46.8188 -4.14489e-06 71.0014 -4.14489e-06C94.9751 -4.14489e-06 114.622 19.3812 114.958 43.218H114.965V43.8342V56.9968V61.7012C114.965 67.6842 119.874 72.578 125.875 72.578H142V86.8232H125.875H124.805V86.7987C111.434 86.2334 100.673 75.1672 100.673 61.6909V56.9959V43.8257C100.673 27.5576 87.3207 14.2481 71.0005 14.2481C54.6793 14.2481 41.3271 27.5576 41.3271 43.8257V78.5959H27.0362V78.5968ZM114.965 191.331H80.0898C55.8939 191.331 36.1151 211.05 36.1151 235.155H36.1198V253.639C36.1198 259.622 31.2103 264.515 25.2082 264.515V264.732H0.00189045V278.977H25.2082V278.761C39.0708 278.761 50.4116 267.463 50.4116 253.626V235.154C50.4116 218.885 63.7629 205.576 80.0841 205.576H114.966V191.331H114.965ZM114.965 264.733V278.978H74.0091V264.733H114.965ZM27.0362 139.085C27.0362 114.872 46.7196 95.2626 71.0014 95.2626C95.2814 95.2626 114.965 114.872 114.965 139.085C114.965 163.299 95.2814 182.908 71.0014 182.908C46.7205 182.908 27.0362 163.299 27.0362 139.085ZM41.3271 139.085C41.3271 122.749 54.6122 109.508 71.0005 109.508C87.3878 109.508 100.673 122.749 100.673 139.085C100.673 155.422 87.3878 168.663 71.0005 168.663C54.6113 168.663 41.3271 155.422 41.3271 139.085ZM61.4887 314.049V332.404V343.159V350.685C61.4887 357.508 55.8901 363.089 49.0448 363.089H49.041C47.7659 363.089 46.5296 362.893 45.3689 362.533V377.082C46.5693 377.249 47.7943 377.335 49.041 377.335H49.0448C63.7516 377.335 75.7805 365.345 75.7805 350.689V343.159V332.404V315.174V314.053C75.7805 307.229 81.379 301.649 88.2244 301.649H88.2291C95.0744 301.649 100.673 307.229 100.673 314.053V315.174V377.336H114.964V315.174V314.049C114.964 299.393 102.934 287.403 88.2281 287.403H88.2234C73.5176 287.403 61.4878 299.393 61.4878 314.049H61.4887ZM27.0353 337.939V287.402H41.3261V337.939H27.0353ZM27.0504 402.421C27.6469 426.02 47.1875 445.134 71.0109 445.134H86.1099H105.886H114.965V430.889H105.886H86.1099H71.0043C54.6831 430.889 41.3318 417.579 41.3318 401.31H41.3271V385.758H27.0362V401.31V402.421H27.0514H27.0504ZM78.1464 488.328V453.557H63.8537V488.328H78.1464ZM27.0362 453.557V488.32C27.0362 512.439 46.8188 532.154 71.0014 532.154C95.1821 532.154 114.965 512.438 114.965 488.32V453.557H100.674V488.328C100.674 504.596 87.3217 517.905 71.0014 517.905C54.6803 517.905 41.328 504.596 41.328 488.328V453.557H27.0372H27.0362ZM0.000945224 626.91H16.1142C29.9948 626.91 41.3271 615.606 41.3271 601.787V584.403C41.3271 568.135 54.6793 554.826 71.0005 554.826C87.3207 554.826 100.673 568.135 100.673 584.403V619.173H114.964V584.411C114.964 560.292 95.1812 540.577 71.0005 540.577C46.8188 540.577 27.0353 560.293 27.0353 584.411V601.786C27.0353 607.769 22.1258 612.663 16.1246 612.663H0L0 626.908L0.000945224 626.91ZM27.0362 722.981H61.9112C86.1071 722.981 105.886 703.261 105.886 679.156H105.882V660.673C105.882 654.69 110.791 649.796 116.793 649.796H116.797C122.799 649.796 127.708 654.69 127.708 660.673V669.673H141.999V660.683C141.999 646.847 130.658 635.551 116.796 635.551H116.792C102.929 635.551 91.5884 646.848 91.5884 660.683V679.157C91.5884 695.426 78.2371 708.736 61.9159 708.736H27.0343V722.981H27.0362ZM27.0362 649.578V635.333H67.9918V649.578H27.0362Z"/>
</mask>
<path fill-rule="evenodd" clip-rule="evenodd" d="M27.0362 731.403V766.166C27.0362 790.284 46.8188 810 71.0014 810C95.1821 810 114.965 790.283 114.965 766.166V731.403H100.674V766.173C100.674 782.441 87.3217 795.751 71.0014 795.751C54.6803 795.751 41.328 782.441 41.328 766.173V731.403H27.0372H27.0362ZM27.0362 78.5968V43.8342C27.0362 19.7157 46.8188 -4.14489e-06 71.0014 -4.14489e-06C94.9751 -4.14489e-06 114.622 19.3812 114.958 43.218H114.965V43.8342V56.9968V61.7012C114.965 67.6842 119.874 72.578 125.875 72.578H142V86.8232H125.875H124.805V86.7987C111.434 86.2334 100.673 75.1672 100.673 61.6909V56.9959V43.8257C100.673 27.5576 87.3207 14.2481 71.0005 14.2481C54.6793 14.2481 41.3271 27.5576 41.3271 43.8257V78.5959H27.0362V78.5968ZM114.965 191.331H80.0898C55.8939 191.331 36.1151 211.05 36.1151 235.155H36.1198V253.639C36.1198 259.622 31.2103 264.515 25.2082 264.515V264.732H0.00189045V278.977H25.2082V278.761C39.0708 278.761 50.4116 267.463 50.4116 253.626V235.154C50.4116 218.885 63.7629 205.576 80.0841 205.576H114.966V191.331H114.965ZM114.965 264.733V278.978H74.0091V264.733H114.965ZM27.0362 139.085C27.0362 114.872 46.7196 95.2626 71.0014 95.2626C95.2814 95.2626 114.965 114.872 114.965 139.085C114.965 163.299 95.2814 182.908 71.0014 182.908C46.7205 182.908 27.0362 163.299 27.0362 139.085ZM41.3271 139.085C41.3271 122.749 54.6122 109.508 71.0005 109.508C87.3878 109.508 100.673 122.749 100.673 139.085C100.673 155.422 87.3878 168.663 71.0005 168.663C54.6113 168.663 41.3271 155.422 41.3271 139.085ZM61.4887 314.049V332.404V343.159V350.685C61.4887 357.508 55.8901 363.089 49.0448 363.089H49.041C47.7659 363.089 46.5296 362.893 45.3689 362.533V377.082C46.5693 377.249 47.7943 377.335 49.041 377.335H49.0448C63.7516 377.335 75.7805 365.345 75.7805 350.689V343.159V332.404V315.174V314.053C75.7805 307.229 81.379 301.649 88.2244 301.649H88.2291C95.0744 301.649 100.673 307.229 100.673 314.053V315.174V377.336H114.964V315.174V314.049C114.964 299.393 102.934 287.403 88.2281 287.403H88.2234C73.5176 287.403 61.4878 299.393 61.4878 314.049H61.4887ZM27.0353 337.939V287.402H41.3261V337.939H27.0353ZM27.0504 402.421C27.6469 426.02 47.1875 445.134 71.0109 445.134H86.1099H105.886H114.965V430.889H105.886H86.1099H71.0043C54.6831 430.889 41.3318 417.579 41.3318 401.31H41.3271V385.758H27.0362V401.31V402.421H27.0514H27.0504ZM78.1464 488.328V453.557H63.8537V488.328H78.1464ZM27.0362 453.557V488.32C27.0362 512.439 46.8188 532.154 71.0014 532.154C95.1821 532.154 114.965 512.438 114.965 488.32V453.557H100.674V488.328C100.674 504.596 87.3217 517.905 71.0014 517.905C54.6803 517.905 41.328 504.596 41.328 488.328V453.557H27.0372H27.0362ZM0.000945224 626.91H16.1142C29.9948 626.91 41.3271 615.606 41.3271 601.787V584.403C41.3271 568.135 54.6793 554.826 71.0005 554.826C87.3207 554.826 100.673 568.135 100.673 584.403V619.173H114.964V584.411C114.964 560.292 95.1812 540.577 71.0005 540.577C46.8188 540.577 27.0353 560.293 27.0353 584.411V601.786C27.0353 607.769 22.1258 612.663 16.1246 612.663H0L0 626.908L0.000945224 626.91ZM27.0362 722.981H61.9112C86.1071 722.981 105.886 703.261 105.886 679.156H105.882V660.673C105.882 654.69 110.791 649.796 116.793 649.796H116.797C122.799 649.796 127.708 654.69 127.708 660.673V669.673H141.999V660.683C141.999 646.847 130.658 635.551 116.796 635.551H116.792C102.929 635.551 91.5884 646.848 91.5884 660.683V679.157C91.5884 695.426 78.2371 708.736 61.9159 708.736H27.0343V722.981H27.0362ZM27.0362 649.578V635.333H67.9918V649.578H27.0362Z" stroke="#E142F1" stroke-width="2" mask="url(#path-1-inside-1_8857_2086)"/>
</g>
</svg>
