<svg width="40" height="41" viewBox="0 0 40 41" fill="none" xmlns="http://www.w3.org/2000/svg">
<path fill-rule="evenodd" clip-rule="evenodd" d="M40 0.280029H0V40.28H40V0.280029ZM31.9529 19.0697C31.6881 16.0991 30.3166 13.3433 28.0913 11.3108C25.8525 9.26635 22.9482 8.14001 19.9108 8.14001C13.2443 8.14001 7.82021 13.5235 7.82021 20.14C7.82021 22.3607 8.43737 24.5239 9.60582 26.4082L7 32.1333L15.3432 31.2512C16.794 31.8411 18.3295 32.14 19.9094 32.14C20.3249 32.14 20.7511 32.1187 21.1787 32.0746C21.5552 32.0346 21.9357 31.9759 22.3095 31.9011C27.8923 30.7815 31.9677 25.8638 32 20.2041V20.14C32 19.7797 31.9839 19.4194 31.9516 19.0711L31.9529 19.0697Z" fill="#00D1FF"/>
<path d="M23.574 26.14C18.2957 26.14 14.0014 21.8443 14 16.566C14.0014 15.228 15.0909 14.14 16.426 14.14C16.5633 14.14 16.6991 14.1516 16.8291 14.1747C17.1152 14.2224 17.3869 14.3192 17.6368 14.4651C17.673 14.4868 17.6975 14.5215 17.7033 14.5619L18.261 18.0774C18.2683 18.1179 18.2553 18.1598 18.2278 18.1901C17.92 18.5311 17.527 18.7767 17.0892 18.8996L16.8783 18.9588L16.9577 19.1625C17.6773 20.9947 19.1424 22.4584 20.976 23.1808L21.1798 23.2617L21.239 23.0508C21.3618 22.613 21.6075 22.22 21.9485 21.9122C21.973 21.8891 22.0063 21.8775 22.0395 21.8775C22.0467 21.8775 22.0539 21.8775 22.0626 21.879L25.5781 22.4367C25.62 22.4439 25.6547 22.467 25.6763 22.5032C25.8208 22.7531 25.9176 23.0262 25.9668 23.3123C25.9899 23.4395 26 23.5738 26 23.714C26 25.0505 24.912 26.1386 23.574 26.14Z" fill="#00D1FF"/>
</svg>
