<svg aria-hidden="true" xmlns="http://www.w3.org/2000/svg" xmlns:xlink="http://www.w3.org/1999/xlink"><symbol viewBox="0 0 25 24" fill="none" id="icon-arrow" xmlns="http://www.w3.org/2000/svg">
<path d="M20.8459 8.9502L14.3259 15.4702C13.5559 16.2402 12.2959 16.2402 11.5259 15.4702L5.00586 8.9502" stroke="currentColor" stroke-width="1.5" stroke-miterlimit="10" stroke-linecap="round" stroke-linejoin="round"/>
</symbol><symbol viewBox="0 0 22 13" fill="none" id="icon-arrow-simple" xmlns="http://www.w3.org/2000/svg">
<path d="M1.2212 1.7792L10.7522 11.2832L20.2832 1.7792" stroke="currentColor" stroke-width="2" stroke-linecap="round" stroke-linejoin="round"/>
</symbol><symbol viewBox="0 0 21 44" fill="none" id="icon-bending" xmlns="http://www.w3.org/2000/svg">
<path d="M9 42C4.59 36.4333 2 29.5 2 22C2 14.5 4.59 7.56667 9 2" stroke="currentColor" stroke-width="4" stroke-linecap="round" stroke-linejoin="round"/>
<path d="M19 34C16.5 30.6667 15 26.5 15 22C15 17.5 16.5 13.3333 19 10" stroke="currentColor" stroke-width="4" stroke-linecap="round" stroke-linejoin="round"/>
</symbol><symbol viewBox="0 0 30 30" fill="none" id="icon-cart" xmlns="http://www.w3.org/2000/svg">
<path d="M2.5 2.5H4.65113C5.98631 2.5 7.03715 3.63743 6.92588 4.94608L5.89977 17.1275C5.72669 19.1211 7.32148 20.8333 9.34898 20.8333H22.5154C24.2956 20.8333 25.8533 19.3902 25.9893 17.6412L26.6569 8.46843C26.8052 6.43819 25.2475 4.78708 23.1829 4.78708H7.2226" stroke="currentColor" stroke-width="2" stroke-miterlimit="10" stroke-linecap="round" stroke-linejoin="round"/>
<path d="M20.8332 27.5C21.7536 27.5 22.4998 26.7538 22.4998 25.8334C22.4998 24.9129 21.7536 24.1667 20.8332 24.1667C19.9127 24.1667 19.1665 24.9129 19.1665 25.8334C19.1665 26.7538 19.9127 27.5 20.8332 27.5Z" stroke="currentColor" stroke-width="2" stroke-miterlimit="10" stroke-linecap="round" stroke-linejoin="round"/>
<path d="M10.8332 27.5C11.7536 27.5 12.4998 26.7538 12.4998 25.8334C12.4998 24.9129 11.7536 24.1667 10.8332 24.1667C9.9127 24.1667 9.1665 24.9129 9.1665 25.8334C9.1665 26.7538 9.9127 27.5 10.8332 27.5Z" stroke="currentColor" stroke-width="2" stroke-miterlimit="10" stroke-linecap="round" stroke-linejoin="round"/>
<path d="M11.6665 10H26.6665" stroke="currentColor" stroke-width="2" stroke-miterlimit="10" stroke-linecap="round" stroke-linejoin="round"/>
</symbol><symbol viewBox="0 0 24 24" fill="none" id="icon-check" xmlns="http://www.w3.org/2000/svg">
<path d="M3.61971 8.49C5.58971 -0.169998 18.4197 -0.159997 20.3797 8.5C21.5297 13.58 18.3697 17.88 15.5997 20.54C13.5897 22.48 10.4097 22.48 8.38971 20.54C5.62971 17.88 2.46971 13.57 3.61971 8.49Z" stroke="currentColor" stroke-width="1.5"/>
<path d="M9.25 11.5L10.75 13L14.75 9" stroke="currentColor" stroke-width="1.5" stroke-linecap="round" stroke-linejoin="round"/>
</symbol><symbol viewBox="0 0 81 79" fill="none" id="icon-cross" xmlns="http://www.w3.org/2000/svg">
<path fill-rule="evenodd" clip-rule="evenodd" d="M0.0961948 25.4783L18.5896 7.23459L63.3189 68.7646L53.6954 78.7342L39.5761 65.1246L25.9338 78.998L0 52.7387L13.8013 39.2291L0.0975308 25.4783H0.0961948ZM70.4199 40.9978H80.9987V42.0481H70.4199V40.9978ZM18.623 5.55523L23.9298 0.297221L37.4826 13.7814L51.2144 0L77.1161 26.0448L63.4725 39.7396L77.1014 53.3238L63.6515 67.0639L18.6244 5.55523H18.623Z" fill="currentColor"/>
</symbol><symbol viewBox="0 0 24 24" fill="none" id="icon-curve-arrow" xmlns="http://www.w3.org/2000/svg">
<path d="M7.12988 18.31H15.1299C17.8899 18.31 20.1299 16.07 20.1299 13.31C20.1299 10.55 17.8899 8.31 15.1299 8.31H4.12988" stroke="currentColor" stroke-width="1.5" stroke-miterlimit="10" stroke-linecap="round" stroke-linejoin="round"/>
<path d="M6.43012 10.81L3.87012 8.25L6.43012 5.69" stroke="currentColor" stroke-width="1.5" stroke-linecap="round" stroke-linejoin="round"/>
</symbol><symbol viewBox="0 0 44 46" fill="none" id="icon-location" xmlns="http://www.w3.org/2000/svg">
<path fill-rule="evenodd" clip-rule="evenodd" d="M22.0011 37C18.3119 32.1752 15.1351 26.9988 12.3103 19.8896C10.3584 14.9777 10.4299 9.58179 13.5982 5.80918C15.9679 2.98465 18.8013 2 22.0011 2C25.2008 2 28.0342 2.98465 30.4039 5.80918C33.5693 9.5846 33.6409 14.9805 31.6918 19.8896C28.867 26.9988 25.6902 32.1752 22.0011 37Z" stroke="currentColor" stroke-width="3" stroke-miterlimit="22.9256" stroke-linecap="round" stroke-linejoin="round"/>
<path d="M22 18C24.7614 18 27 15.7614 27 13C27 10.2386 24.7614 8 22 8C19.2386 8 17 10.2386 17 13C17 15.7614 19.2386 18 22 18Z" stroke="currentColor" stroke-width="3" stroke-miterlimit="22.9256" stroke-linecap="round" stroke-linejoin="round"/>
<path d="M30.9364 32C37.4818 32.9326 42 34.9178 42 37.2166C42 40.4113 33.2708 43 22.5 43C11.7292 43 3 40.4113 3 37.2166C3 34.9283 7.48403 32.9482 13.9897 32.0104" stroke="currentColor" stroke-width="3" stroke-miterlimit="22.9256" stroke-linecap="round" stroke-linejoin="round"/>
</symbol><symbol viewBox="0 0 40 41" fill="none" id="icon-sms" xmlns="http://www.w3.org/2000/svg">
<path fill-rule="evenodd" clip-rule="evenodd" d="M40 0.280029H0V40.28H40V0.280029ZM16.0214 27.3779L13.719 27.3779C10.119 27.3779 7.71901 24.9732 7.71901 21.3661V14.1519C7.71901 10.5448 10.119 8.14001 13.719 8.14001H25.719C29.319 8.14001 31.719 10.5448 31.719 14.1519V21.3661C31.719 24.9732 29.319 27.3779 25.719 27.3779V29.939C25.719 30.9009 24.651 31.466 23.859 30.937L18.6478 27.3779L16.0214 27.3779Z" fill="currentColor"/>
<path d="M10.0348 19.2157C10.0597 20.1024 10.3206 20.8025 10.8161 21.3198L10.8161 21.3199C11.3155 21.8431 11.9876 22.106 12.8344 22.106C13.3798 22.106 13.8415 21.9994 14.2244 21.7898C14.6076 21.5784 14.9112 21.273 15.1341 20.8669L15.1342 20.8668C15.3572 20.4627 15.4697 20.0144 15.4697 19.521C15.4697 19.0232 15.3646 18.5977 15.1543 18.241L15.1542 18.2409C14.9459 17.8845 14.6329 17.5988 14.2155 17.3804C13.9414 17.2423 13.465 17.0747 12.7821 16.8843L12.782 16.8843C12.4315 16.7858 12.1426 16.6875 11.916 16.5892C11.6901 16.4911 11.5236 16.3918 11.4199 16.2902C11.2113 16.0896 11.1091 15.8061 11.1091 15.4468C11.1091 15.0585 11.2484 14.7409 11.5293 14.4948L10.0348 19.2157ZM10.0348 19.2157L10.8417 19.1369L10.0348 19.2157ZM24.531 19.2157C24.5559 20.1024 24.8168 20.8025 25.3123 21.3198L25.3123 21.3199C25.8117 21.8431 26.4838 22.106 27.3306 22.106C27.876 22.106 28.3377 21.9994 28.7206 21.7898L24.531 19.2157ZM24.531 19.2157L25.3379 19.1369C25.3851 19.6017 25.489 19.9692 25.6517 20.2363L25.6806 20.2187L25.6518 20.2363C25.8182 20.5094 26.0546 20.7283 26.362 20.8932L26.3755 20.868L26.362 20.8932C26.6698 21.0583 27.0174 21.1404 27.3995 21.1404C27.9493 21.1404 28.3807 21.0011 28.6894 20.7201L28.6895 20.72C28.9977 20.4373 29.1503 20.071 29.1503 19.6246C29.1503 19.3621 29.0942 19.1332 28.9809 18.9347M24.531 19.2157L28.9809 18.9347M28.9809 18.9347C28.981 18.9348 28.981 18.9348 28.981 18.9348L28.9514 18.9516L28.9809 18.9347ZM28.9809 18.9347C28.8694 18.7381 28.6994 18.5758 28.4729 18.4515L28.9809 18.9347ZM25.0179 16.5789L25.018 16.5791C25.1687 16.8844 25.3812 17.1373 25.6537 17.3368C25.9258 17.5341 26.385 17.7335 27.0362 17.9318C27.0362 17.9318 27.0362 17.9319 27.0363 17.9319L27.0263 17.9644L25.0179 16.5789ZM25.0179 16.5789C24.8655 16.2742 24.7897 15.9268 24.7897 15.54C24.7897 14.8423 25.0071 14.2757 25.442 13.8348L25.442 13.8348M25.0179 16.5789L25.442 13.8348M25.442 13.8348C25.8744 13.3948 26.46 13.1741 27.1993 13.1741C27.7091 13.1741 28.153 13.2785 28.5323 13.4842C28.9114 13.6917 29.2054 13.9891 29.4165 14.3746C29.6213 14.7525 29.7338 15.1986 29.7529 15.712L28.947 15.7908C28.8974 15.2378 28.7316 14.8207 28.4466 14.5469L25.442 13.8348ZM27.2783 16.8843L27.2782 16.8843C26.9277 16.7858 26.6389 16.6875 26.4123 16.5892C26.1863 16.4911 26.0198 16.3918 25.9161 16.2902C25.9161 16.2902 25.916 16.2901 25.916 16.2901L25.9398 16.2658C25.7396 16.0732 25.6393 15.7995 25.6393 15.4468C25.6393 15.0678 25.775 14.7597 26.0481 14.5205C26.3211 14.2813 26.7158 14.1617 27.2345 14.1617L27.2783 16.8843ZM27.2783 16.8843C27.9613 17.0747 28.4378 17.2423 28.7117 17.3804C29.1291 17.5988 29.4421 17.8845 29.6504 18.2409L29.6505 18.241M27.2783 16.8843L29.6505 18.241M29.6505 18.241C29.861 18.5977 29.966 19.0232 29.966 19.521C29.966 20.0144 29.8534 20.4627 29.6304 20.8668L29.6304 20.8669M29.6505 18.241L29.6304 20.8669M29.6304 20.8669C29.4073 21.273 29.1037 21.5783 28.7207 21.7898L29.6304 20.8669ZM23.2934 13.3202V21.9603H22.4777V14.6727L22.4108 14.6637L20.4062 21.9603H19.6335L17.6446 14.5443L17.5776 14.5532V21.9603H16.7619V13.3201H18.0786L19.7079 19.4608L19.708 19.4611L20.036 20.7499L20.102 20.7497C20.1824 20.4279 20.3041 19.9638 20.4691 19.3539L22.118 13.3202H23.2934Z" fill="currentColor" stroke="currentColor" stroke-width="0.0680959"/>
</symbol><symbol viewBox="0 0 40 41" fill="none" id="icon-tel" xmlns="http://www.w3.org/2000/svg">
<path fill-rule="evenodd" clip-rule="evenodd" d="M40 0.280029H0V40.28H40V0.280029ZM31.6995 29.044C31.9039 28.612 32 28.168 32 27.736C32 27.4 31.9279 27.1 31.8077 26.8C31.6755 26.5 31.4592 26.248 31.1467 26.032L27.1688 23.212C26.8683 23.008 26.5919 22.852 26.3275 22.744C26.0631 22.636 25.8227 22.588 25.5944 22.588C25.2939 22.588 25.0175 22.672 24.7411 22.84C24.4647 22.984 24.1763 23.212 23.8758 23.512L22.9624 24.412C22.8302 24.544 22.674 24.616 22.4697 24.616C22.3615 24.616 22.2654 24.604 22.1693 24.568C22.1307 24.5515 22.0946 24.535 22.0611 24.5197L22.0611 24.5196C22.0215 24.5015 21.9855 24.485 21.9529 24.472C21.5443 24.256 21.0275 23.896 20.4026 23.368C19.7656 22.828 19.1407 22.24 18.4917 21.604C17.8668 20.968 17.2899 20.332 16.7491 19.708C16.2203 19.084 15.8478 18.568 15.6314 18.172C15.6184 18.133 15.6019 18.0941 15.5838 18.0513L15.5838 18.0513L15.5837 18.0512C15.5684 18.015 15.5518 17.976 15.5353 17.932C15.5113 17.836 15.4992 17.752 15.4992 17.656C15.4992 17.464 15.5593 17.308 15.6915 17.176L16.6049 16.228C16.8933 15.94 17.1217 15.652 17.2779 15.376C17.4462 15.1 17.5303 14.812 17.5303 14.524C17.5303 14.296 17.4702 14.044 17.362 13.792C17.2539 13.528 17.0976 13.252 16.8813 12.952L14.0931 9.02802C13.8768 8.71601 13.6004 8.50002 13.2879 8.35601C12.9875 8.21201 12.651 8.14001 12.3145 8.14001C11.4251 8.14001 10.5839 8.51201 9.81472 9.26801C9.17777 9.86802 8.72108 10.54 8.43265 11.272C8.14422 11.992 8 12.772 8 13.588C8 14.836 8.28843 16.144 8.8653 17.512C9.44216 18.868 10.2354 20.236 11.2208 21.604C12.2183 22.972 13.336 24.28 14.5739 25.528C15.8237 26.764 17.1337 27.88 18.5158 28.888C19.8858 29.884 21.2679 30.676 22.65 31.264C24.032 31.852 25.342 32.14 26.5679 32.14C27.4091 32.14 28.1903 31.984 28.9114 31.684C29.6445 31.384 30.2934 30.916 30.8823 30.268C31.2308 29.884 31.4952 29.476 31.6995 29.044ZM21.25 13.14C21.25 12.7258 21.5858 12.39 22 12.39C23.5017 12.39 24.9008 13.3334 25.8776 14.3863C26.422 14.9696 26.8804 15.622 27.2063 16.256C27.5246 16.8752 27.75 17.5416 27.75 18.14C27.75 18.5542 27.4142 18.89 27 18.89C26.5858 18.89 26.25 18.5542 26.25 18.14C26.25 17.8813 26.1397 17.462 25.8723 16.9419C25.6127 16.4369 25.2356 15.8968 24.7803 15.4089L24.7787 15.4072C23.927 14.489 22.8979 13.89 22 13.89C21.5858 13.89 21.25 13.5542 21.25 13.14ZM22 7.39001C21.5858 7.39001 21.25 7.7258 21.25 8.14001C21.25 8.55423 21.5858 8.89001 22 8.89001C27.1144 8.89001 31.25 13.0257 31.25 18.14C31.25 18.5542 31.5858 18.89 32 18.89C32.4142 18.89 32.75 18.5542 32.75 18.14C32.75 12.1972 27.9428 7.39001 22 7.39001Z" fill="currentColor"/>
</symbol><symbol viewBox="0 0 40 41" fill="none" id="icon-tg" xmlns="http://www.w3.org/2000/svg">
<path fill-rule="evenodd" clip-rule="evenodd" d="M40 0.140015H0V40.14H40V0.140015ZM7.79453 19.1779C7.74079 19.2028 7.68565 19.2292 7.63053 19.2569L7.62781 19.2556C7.40046 19.3721 7.18412 19.515 7.07252 19.7412C6.89477 20.1019 7.06423 20.557 7.35909 20.8276C7.65396 21.0981 8.04804 21.2272 8.42972 21.3465C9.1476 21.5727 9.86826 21.7919 10.5903 22.0056C11.4514 22.2609 12.3471 22.5106 13.2372 22.383C14.232 22.2415 15.0973 21.6476 15.9227 21.0704C17.1879 20.1856 18.4528 19.3005 19.7177 18.4154C20.9819 17.5308 22.2461 16.6462 23.5107 15.7619C23.7119 15.6217 23.9654 15.4746 24.1859 15.5829C24.5565 15.7646 24.3443 16.3335 24.0743 16.6485C23.1986 17.6706 22.185 18.5619 21.1722 19.4526C19.9716 20.5085 18.7721 21.5634 17.8049 22.8339C17.5899 23.1156 17.3791 23.4319 17.3764 23.7871C17.3709 24.3768 17.9137 24.8014 18.4015 25.1261C19.4273 25.8101 20.4535 26.4941 21.4797 27.1782C22.5059 27.8622 23.5321 28.5462 24.5579 29.2303C25.0526 29.5591 25.5569 29.8935 26.1287 30.0531C26.7005 30.2112 27.3591 30.1696 27.8221 29.7964C28.3691 29.3551 28.5124 28.5892 28.6172 27.8913C29.2946 23.4098 29.9709 18.9272 30.6471 14.4454L30.921 12.6303C31.0312 11.9004 31.1043 11.0485 30.5834 10.5296C30.4746 10.42 30.3437 10.3326 30.2017 10.2701C29.7911 10.0912 29.3185 10.1245 28.89 10.2063C28.7806 10.2271 28.6728 10.2561 28.5653 10.285C28.4506 10.3158 28.3362 10.3465 28.2203 10.3673C28.0267 10.4014 27.8316 10.4953 27.644 10.5856C27.5726 10.62 27.5023 10.6538 27.4336 10.6836C26.8725 10.9252 26.311 11.1671 25.7496 11.409C25.1887 11.6506 24.6279 11.8923 24.0674 12.1336C23.507 12.3748 22.9462 12.6164 22.3854 12.858C21.8239 13.1 21.2624 13.3419 20.7012 13.5835C20.1408 13.8247 19.58 14.0664 19.0192 14.308C18.4577 14.5499 17.8962 14.7918 17.335 15.0334C16.7744 15.2748 16.2134 15.5165 15.6524 15.7582C15.0911 16 14.5298 16.2419 13.9688 16.4833C13.4086 16.7259 12.8483 16.9671 12.2881 17.2083L12.2864 17.209C12.1459 17.2694 12.0057 17.3297 11.8655 17.3901C11.7253 17.4504 11.5851 17.5108 11.4446 17.5711C11.3627 17.607 11.2804 17.6425 11.1979 17.678C11.1401 17.7029 11.0822 17.7278 11.0243 17.7529C10.9878 17.7689 10.9512 17.7845 10.9147 17.8001C10.8782 17.8157 10.8417 17.8313 10.8052 17.8472C10.7893 17.8536 10.7694 17.8644 10.748 17.876C10.7045 17.8995 10.6548 17.9263 10.6206 17.9263L10.5708 17.9478C9.6421 18.3486 8.71233 18.7498 7.79453 19.1779Z" fill="currentColor"/>
</symbol><symbol viewBox="0 0 51 51" fill="none" id="icon-tie" xmlns="http://www.w3.org/2000/svg">
<path fill-rule="evenodd" clip-rule="evenodd" d="M2.24505 9.3228C2.4808 9.77737 3.23604 10.6048 3.59637 10.9823C4.79034 12.2333 7.73062 14.1206 9.09094 14.5005C9.42994 12.5729 10.0129 11.692 12.2785 11.1548C13.5712 10.8484 17.0398 10.5569 18.3139 10.7132L25.5156 50.9999L32.6298 10.7149C34.1943 10.5925 37.2707 10.8082 38.7304 11.1613C39.6855 11.3923 40.3896 11.7039 40.9417 12.2408C41.7338 13.0108 41.6858 13.6541 41.9122 14.5035C43.0419 14.167 44.9387 12.9689 45.7651 12.3608C46.9808 11.4662 46.9536 11.3264 47.7796 10.569C47.9722 10.3924 48.6551 9.54739 48.7485 9.30498C48.4476 9.22265 48.0424 9.00188 47.7351 8.87C47.3986 8.72559 47.1016 8.59702 46.7585 8.45975C46.0961 8.19466 45.4322 7.94009 44.742 7.70025C41.8035 6.6791 38.926 5.97733 35.8208 5.48093C34.3778 5.25022 32.227 4.92518 30.77 4.96318L28.7637 7.39796C28.5286 7.67779 28.3273 7.91387 28.1162 8.1912L25.4833 11.3652L24.1605 9.76308C23.9447 9.4795 23.7374 9.25579 23.5112 8.97191L20.2479 4.9768C19.3348 4.84624 16.1756 5.31731 15.1557 5.48108C10.5453 6.22174 6.40466 7.43095 2.24513 9.32295L2.24505 9.3228ZM0 4.95928C0.112487 5.40059 0.768137 6.73676 1.02594 7.223C1.15462 7.46578 1.31833 7.70157 1.38795 7.94134L3.98813 6.89752C11.1144 4.24197 17.6773 3.09328 25.4832 3.09188C31.6258 3.0907 38.5479 3.95456 44.2896 5.93705C45.1998 6.25134 46.0764 6.54449 46.9494 6.87491L49.5557 7.93162L49.7655 7.61336C49.84 7.47676 49.8847 7.37381 49.9576 7.23655C50.2484 6.68905 50.8801 5.49257 50.9999 4.96642L48.2256 3.94189C33.2646 -1.34137 17.7942 -1.27974 2.82339 3.92157L0 4.95928Z" fill="currentColor"/>
</symbol><symbol viewBox="0 0 40 41" fill="none" id="icon-wh" xmlns="http://www.w3.org/2000/svg">
<path fill-rule="evenodd" clip-rule="evenodd" d="M40 0.280029H0V40.28H40V0.280029ZM31.9529 19.0697C31.6881 16.0991 30.3166 13.3433 28.0913 11.3108C25.8525 9.26635 22.9482 8.14001 19.9108 8.14001C13.2443 8.14001 7.82021 13.5235 7.82021 20.14C7.82021 22.3607 8.43737 24.5239 9.60582 26.4082L7 32.1333L15.3432 31.2512C16.794 31.8411 18.3295 32.14 19.9094 32.14C20.3249 32.14 20.7511 32.1187 21.1787 32.0746C21.5552 32.0346 21.9357 31.9759 22.3095 31.9011C27.8923 30.7815 31.9677 25.8638 32 20.2041V20.14C32 19.7797 31.9839 19.4194 31.9516 19.0711L31.9529 19.0697Z" fill="currentColor"/>
<path d="M23.574 26.14C18.2957 26.14 14.0014 21.8443 14 16.566C14.0014 15.228 15.0909 14.14 16.426 14.14C16.5633 14.14 16.6991 14.1516 16.8291 14.1747C17.1152 14.2224 17.3869 14.3192 17.6368 14.4651C17.673 14.4868 17.6975 14.5215 17.7033 14.5619L18.261 18.0774C18.2683 18.1179 18.2553 18.1598 18.2278 18.1901C17.92 18.5311 17.527 18.7767 17.0892 18.8996L16.8783 18.9588L16.9577 19.1625C17.6773 20.9947 19.1424 22.4584 20.976 23.1808L21.1798 23.2617L21.239 23.0508C21.3618 22.613 21.6075 22.22 21.9485 21.9122C21.973 21.8891 22.0063 21.8775 22.0395 21.8775C22.0467 21.8775 22.0539 21.8775 22.0626 21.879L25.5781 22.4367C25.62 22.4439 25.6547 22.467 25.6763 22.5032C25.8208 22.7531 25.9176 23.0262 25.9668 23.3123C25.9899 23.4395 26 23.5738 26 23.714C26 25.0505 24.912 26.1386 23.574 26.14Z" fill="currentColor"/>
</symbol></svg>